<svg xmlns="http://www.w3.org/2000/svg" width="919.986" height="929.516" viewBox="0 0 919.986 929.516">
  <g id="Group_3" data-name="Group 3" transform="translate(15.235 20)">
    <path id="Path_4" data-name="Path 4" d="M449.56,663.408c-120.568,0-218.66-98.1-218.66-218.677,0-120.545,98.092-218.624,218.66-218.624,120.533,0,218.582,98.078,218.582,218.624,0,120.58-98.047,218.677-218.582,218.677Zm0-418.238c-110.058,0-199.6,89.528-199.6,199.562,0,110.067,89.541,199.614,199.6,199.614,110.023,0,199.521-89.547,199.521-199.614,0-110.034-89.5-199.562-199.521-199.562Z" fill="none" stroke="#fff" stroke-width="40"/>
    <path id="Path_5" data-name="Path 5" d="M459.054,889.516H439.989V699.948h19.065Z" fill="none" stroke="#fff" stroke-width="40"/>
    <path id="Path_6" data-name="Path 6" d="M459.054,188.87H439.989V0h19.065Z" fill="none" stroke="#fff" stroke-width="40"/>
    <path id="Path_7" data-name="Path 7" d="M884.751,454.288H705.669v-19.06H884.751Z" fill="none" stroke="#fff" stroke-width="40"/>
    <path id="Path_8" data-name="Path 8" d="M193.9,454.288H4.765v-19.06H193.9Z" fill="none" stroke="#fff" stroke-width="40"/>
    <path id="Path_9" data-name="Path 9" d="M712.769,723.626l-81.26-81.265,13.476-13.475,81.258,81.262Z" fill="none" stroke="#fff" stroke-width="40"/>
    <path id="Path_10" data-name="Path 10" d="M259.641,270.469l-84.385-84.4L188.733,172.6l84.385,84.4Z" transform="translate(-6 -7)" fill="none" stroke="#fff" stroke-width="40"/>
    <path id="Path_11" data-name="Path 11" d="M644.985,267.333l-13.476-13.477,81.26-81.258,13.474,13.477Z" fill="none" stroke="#fff" stroke-width="40"/>
    <path id="Path_12" data-name="Path 12" d="M188.727,723.626,175.25,710.148l84.391-84.39,13.477,13.476Z" fill="none" stroke="#fff" stroke-width="40"/>
  </g>
</svg>
