<svg xmlns="http://www.w3.org/2000/svg" width="592.424" height="592.52" viewBox="0 0 592.424 592.52">
  <g id="moon" transform="translate(9.998 10.122)">
    <g id="Group_1" data-name="Group 1" transform="translate(0.002 0)">
      <path id="Path_1" data-name="Path 1" d="M570.63,370.622A23.814,23.814,0,0,0,548.6,355.853c-.048,0-.1-.012-.143-.012-.155,0-.286.06-.441.072a23.617,23.617,0,0,0-5.5.835c-.68.179-1.324.358-1.98.585-.334.119-.68.167-1.026.3a247.4,247.4,0,0,1-94.518,18.539c-137.154,0-248.743-111.589-248.743-248.743a247.172,247.172,0,0,1,18.539-94.518c.179-.418.239-.859.382-1.288.179-.525.334-1.05.477-1.6a23.639,23.639,0,0,0,.895-5.929c0-.084.036-.167.036-.262,0-.024-.012-.06-.012-.084a22.636,22.636,0,0,0-.429-4.223c-.06-.3-.107-.6-.167-.895a23.443,23.443,0,0,0-1.253-4.02c-.215-.5-.513-.931-.752-1.408A23.537,23.537,0,0,0,182.454,2.38a1.241,1.241,0,0,0-.191.072,291.582,291.582,0,0,0-95.663,64C-28.866,182.063-28.866,370.168,86.612,485.8a297.123,297.123,0,0,0,419.348-.012,291.787,291.787,0,0,0,63.871-95.353,4.546,4.546,0,0,0,.155-.429,24.071,24.071,0,0,0,1.622-4.438c.024-.119.072-.227.107-.346A23.655,23.655,0,0,0,570.63,370.622Zm-98.383,81.431c-97.023,96.88-254.875,96.88-351.874,0-96.892-97.011-96.892-254.863-.012-351.862a248.5,248.5,0,0,1,33.272-27.7,298.475,298.475,0,0,0-5.106,54.948c0,163.471,132.991,296.462,296.462,296.462a298.57,298.57,0,0,0,54.948-5.106A249.965,249.965,0,0,1,472.247,452.053Z" transform="translate(-0.002 0)" fill="rgba(0,0,0,0)" stroke="#fff" stroke-width="20"/>
    </g>
  </g>
</svg>
