<svg xmlns="http://www.w3.org/2000/svg" width="652" height="558.272" viewBox="0 0 652 558.272">
  <g id="clouds" transform="translate(20 -90.701)">
    <g id="Group_2" data-name="Group 2">
      <g id="Group_1" data-name="Group 1">
        <path id="Path_3" data-name="Path 3" d="M338.273,110.7c.828,0,1.5.058,1.887.077A162.32,162.32,0,0,1,499.017,250.519,125.6,125.6,0,0,1,494.955,500.8v.5H96.446v-.385a103.366,103.366,0,0,1,1.348-206.349,125.868,125.868,0,0,1,86.667-73.538A162.388,162.388,0,0,1,338.273,110.7Zm0,6.68a155.641,155.641,0,0,0-147.5,105.764l-1.155,3.465-3.581.866a119.584,119.584,0,0,0-82.124,69.688l-1.617,3.831-4.12.212a96.7,96.7,0,0,0-1.289,193.046l5.332.385H488.255v-.077l6.237-.423C556.653,489.883,605.3,437.79,605.3,375.515A118.541,118.541,0,0,0,498.362,257.181l-5.218-.558-.712-5.179c-10.53-75.521-76.021-133.119-152.351-134.023h-.75c-.268-.021-.634-.04-1.058-.04Z" stroke="#fff" stroke-width="40"/>
      </g>
    </g>
    <line id="Line_1" data-name="Line 1" x1="17" y2="102.5" transform="translate(70.5 543.201)" fill="none" stroke="#fff" stroke-width="40"/>
    <line id="Line_3" data-name="Line 3" x1="17" y2="102.5" transform="translate(204.5 543.201)" fill="none" stroke="#fff" stroke-width="40"/>
    <line id="Line_5" data-name="Line 5" x1="17" y2="102.5" transform="translate(338.5 543.201)" fill="none" stroke="#fff" stroke-width="40"/>
    <line id="Line_7" data-name="Line 7" x1="17" y2="102.5" transform="translate(472.5 543.201)" fill="none" stroke="#fff" stroke-width="40"/>
  </g>
</svg>
