<svg xmlns="http://www.w3.org/2000/svg" width="652.041" height="601.785" viewBox="0 0 652.041 601.785">
  <g id="thunder" transform="translate(-465 -537.299)">
    <path id="Path_1" data-name="Path 1" d="M338.273,110.7c.828,0,1.5.058,1.887.077A162.32,162.32,0,0,1,499.017,250.519,125.6,125.6,0,0,1,494.955,500.8v.5H96.446v-.385a103.366,103.366,0,0,1,1.348-206.349,125.868,125.868,0,0,1,86.667-73.538A162.388,162.388,0,0,1,338.273,110.7Zm0,6.68a155.641,155.641,0,0,0-147.5,105.764l-1.155,3.465-3.581.866a119.584,119.584,0,0,0-82.124,69.688l-1.617,3.831-4.12.212a96.7,96.7,0,0,0-1.289,193.046l5.332.385H488.255v-.077l6.237-.423C556.653,489.883,605.3,437.79,605.3,375.515A118.541,118.541,0,0,0,498.362,257.181l-5.218-.558-.712-5.179c-10.53-75.521-76.021-133.119-152.351-134.023h-.75c-.268-.021-.634-.04-1.058-.04Z" transform="translate(484.993 446.599)" fill="none" stroke="#fff" stroke-width="40"/>
    <line id="Line_4" data-name="Line 4" x1="54" y2="74" transform="translate(772.5 934.5)" fill="none" stroke="#fff" stroke-width="40"/>
    <line id="Line_12" data-name="Line 12" x1="54" y2="74" transform="translate(949.5 943.5)" fill="none" stroke="#fff" stroke-width="40"/>
    <line id="Line_9" data-name="Line 9" x1="54" y2="74" transform="translate(583.5 943.5)" fill="none" stroke="#fff" stroke-width="40"/>
    <line id="Line_5" data-name="Line 5" x1="69" y1="51" transform="translate(747.5 1008.5)" fill="none" stroke="#fff" stroke-width="40"/>
    <line id="Line_11" data-name="Line 11" x1="69" y1="51" transform="translate(924.5 1017.5)" fill="none" stroke="#fff" stroke-width="40"/>
    <line id="Line_8" data-name="Line 8" x1="69" y1="51" transform="translate(558.5 1017.5)" fill="none" stroke="#fff" stroke-width="40"/>
    <line id="Line_6" data-name="Line 6" y1="76" x2="54" transform="translate(772.5 1042.5)" fill="none" stroke="#fff" stroke-width="40"/>
    <line id="Line_10" data-name="Line 10" y1="76" x2="54" transform="translate(949.5 1051.5)" fill="none" stroke="#fff" stroke-width="40"/>
    <line id="Line_7" data-name="Line 7" y1="76" x2="54" transform="translate(583.5 1051.5)" fill="none" stroke="#fff" stroke-width="40"/>
  </g>
</svg>
